<svg width="144" height="144" viewBox="0 0 144 144" fill="none" xmlns="http://www.w3.org/2000/svg">
<path d="M14.5323 42.8148C16.8978 19.315 37.3117 6.81497 69.0323 9.31482C103.719 12.0484 132.032 37.521 132.032 72.3148C132.032 82.1743 129.767 91.5052 125.73 99.8148L125.715 99.8051C123.517 104.336 120.773 108.62 117.513 112.548C108.129 123.855 95.0877 131.527 80.6456 134.236C66.2035 136.944 51.2682 134.519 38.4249 127.38C27.1744 121.127 18.1485 111.601 12.504 100.128C11.1761 97.4292 12.5871 94.2593 15.3907 93.1693C18.1943 92.0797 21.3258 93.486 22.7023 96.1605C27.3925 105.274 34.689 112.84 43.7179 117.859C54.3404 123.763 66.6929 125.769 78.6378 123.529C90.5826 121.288 101.369 114.943 109.13 105.591C112.171 101.927 114.67 97.8902 116.588 93.6058C118.188 87.9775 114.103 86.835 112.333 90.5902C111 93.7491 109.319 96.7701 107.307 99.5931C101.631 107.557 93.6129 113.552 84.3693 116.743C75.1255 119.934 65.116 120.161 55.7364 117.395C48.1276 115.151 41.2402 111.027 35.6905 105.441C33.5437 103.28 33.9854 99.7858 36.3829 97.9066C38.7805 96.0276 42.2221 96.4855 44.4454 98.5677C48.5221 102.386 53.4519 105.22 58.8575 106.814C66.0356 108.931 73.6955 108.757 80.7696 106.315C87.8436 103.873 93.98 99.285 98.3234 93.1908C100.39 90.2914 102 87.1191 103.122 83.7845C104.19 76.8484 99.2089 77.7299 97.9542 80.2816C97.7529 81.0125 97.5242 81.7375 97.2667 82.4545C95.2613 88.0387 91.645 92.9031 86.8751 96.432C82.1052 99.961 76.3955 101.996 70.4689 102.281C66.4553 102.473 62.4636 101.857 58.7257 100.49C55.7626 99.4055 54.8973 95.8367 56.5226 93.1322C58.1479 90.4277 61.6648 89.654 64.7345 90.3842C66.4233 90.7859 68.1692 90.9516 69.922 90.8676C73.5912 90.6916 77.1261 89.4313 80.0792 87.2465C83.0322 85.0617 85.2712 82.0503 86.5128 78.5931C87.1059 76.9416 87.4586 75.2231 87.5685 73.4906C87.5873 73.1943 87.6198 72.898 87.6661 72.6039L87.3107 72.3148C77.3107 78.9997 69.0319 81.9554 56.8107 82.5004C27.4123 83.8111 12.3683 64.3147 14.5323 42.8148ZM110.811 56.0004C108.878 56.0006 107.311 57.5675 107.311 59.5004C107.311 61.4331 108.878 63.0001 110.811 63.0004C112.744 63.0004 114.311 61.4332 114.311 59.5004C114.311 57.5674 112.744 56.0004 110.811 56.0004Z" fill="url(#paint0_linear_8_189)"/>
<defs>
<linearGradient id="paint0_linear_8_189" x1="72.0155" y1="9.00049" x2="72.0155" y2="135.316" gradientUnits="userSpaceOnUse">
<stop stop-color="#C804FF"/>
<stop offset="1" stop-color="#4004F5"/>
</linearGradient>
</defs>
</svg>
